<?xml version="1.0" standalone="no"?>
<!DOCTYPE svg PUBLIC "-//W3C//DTD SVG 20010904//EN"
 "http://www.w3.org/TR/2001/REC-SVG-20010904/DTD/svg10.dtd">
<svg version="1.0" xmlns="http://www.w3.org/2000/svg"
 width="1024.000000pt" height="1024.000000pt" viewBox="0 0 1024.000000 1024.000000"
 preserveAspectRatio="xMidYMid meet">

<g transform="translate(0.000000,1024.000000) scale(0.100000,-0.100000)"
fill="#000000" stroke="none">
<path d="M0 5120 l0 -5120 5120 0 5120 0 0 5120 0 5120 -5120 0 -5120 0 0
-5120z m5228 2186 c167 -84 1272 -698 1272 -706 0 -14 -434 -202 -455 -198
-33 7 -923 496 -970 533 l-40 32 -65 -30 c-147 -68 -576 -275 -754 -364 l-190
-95 -139 68 c-76 38 -141 72 -143 77 -3 4 235 126 528 271 293 146 610 305
703 354 94 50 173 90 178 91 4 1 38 -14 75 -33z m-365 -1402 c39 -20 106 -56
147 -79 215 -121 399 -226 520 -295 74 -43 227 -126 340 -185 284 -149 272
-142 427 -263 76 -60 158 -121 181 -136 41 -26 43 -28 27 -46 -21 -23 -375
-180 -406 -180 -24 0 -115 48 -484 252 -104 57 -332 182 -505 277 -173 95
-326 180 -339 188 -13 8 -125 68 -250 133 -124 64 -257 135 -295 157 l-68 40
103 12 c57 7 137 23 177 37 40 13 96 26 123 27 27 2 58 10 67 18 10 8 35 15
55 15 21 0 41 5 45 11 4 6 19 14 34 18 17 5 25 12 21 21 -7 20 -1 18 80 -22z
m-705 -1637 c20 -13 82 -48 137 -77 55 -29 115 -62 134 -73 19 -10 141 -75
270 -144 130 -69 300 -161 378 -204 78 -44 145 -79 148 -79 4 0 16 -11 27 -25
16 -20 23 -23 34 -14 8 6 14 17 14 23 0 30 23 35 64 14 36 -18 59 -21 191 -21
82 0 210 1 283 4 72 2 132 3 132 2 0 -7 -618 -299 -767 -363 l-51 -22 -45 20
c-111 49 -1430 747 -1434 759 -2 4 64 39 145 76 81 37 179 85 217 107 39 21
73 39 78 39 4 1 24 -9 45 -22z m5623 -3128 c108 -108 110 -111 93 -130 -17
-19 -20 -18 -131 93 -106 105 -111 113 -96 130 9 10 18 18 20 18 2 0 53 -50
114 -111z m-76 -79 l110 -110 -220 -220 -220 -220 -112 112 -113 113 217 217
c120 120 220 218 223 218 3 0 55 -50 115 -110z m-532 -21 c3 -11 15 -23 26
-26 12 -3 21 -9 21 -13 0 -4 -9 -10 -21 -13 -11 -3 -23 -15 -26 -26 -7 -28
-17 -26 -31 4 -6 14 -18 25 -27 25 -23 0 -18 16 10 28 14 6 25 18 25 27 0 22
17 18 23 -6z m642 -330 c6 -24 16 -35 46 -48 47 -19 49 -27 8 -36 -24 -6 -35
-16 -48 -46 -9 -21 -19 -39 -23 -39 -3 0 -12 16 -18 35 -8 25 -20 37 -46 47
-41 15 -43 24 -7 33 38 9 51 21 58 56 9 38 22 37 30 -2z m-590 -129 c108 -109
109 -109 90 -130 l-19 -21 -113 113 c-106 105 -111 113 -96 130 9 10 19 18 22
18 4 0 56 -49 116 -110z"/>
<path d="M9537 1008 c-73 -39 -200 -172 -233 -241 -60 -130 -1 -171 136 -94
145 81 292 301 238 355 -21 21 -81 13 -141 -20z"/>
</g>
</svg>
